<svg xmlns="http://www.w3.org/2000/svg" version="1.1" xmlns:xlink="http://www.w3.org/1999/xlink" xmlns:svgjs="http://svgjs.com/svgjs" width="1440" height="560" preserveAspectRatio="none" viewBox="0 0 1440 560"><g mask="url(&quot;#SvgjsMask1008&quot;)" fill="none"><rect width="1440" height="560" x="0" y="0" fill="rgba(3, 20, 53, 1)"></rect><path d="M 0,55 C 57.6,86 172.8,210.8 288,210 C 403.2,209.2 460.8,49.2 576,51 C 691.2,52.8 748.8,215.6 864,219 C 979.2,222.4 1036.8,58.2 1152,68 C 1267.2,77.8 1382.4,228 1440,268L1440 560L0 560z" fill="#184a7e"></path><path d="M 0,304 C 41.2,336.2 123.6,465.8 206,465 C 288.4,464.2 329.6,285.4 412,300 C 494.4,314.6 535.6,523 618,538 C 700.4,553 741.6,394.6 824,375 C 906.4,355.4 947.6,442.6 1030,440 C 1112.4,437.4 1154,359.4 1236,362 C 1318,364.6 1399.2,434.8 1440,453L1440 560L0 560z" fill="#2264ab"></path></g><defs><mask id="SvgjsMask1008"><rect width="1440" height="560" fill="#ffffff"></rect></mask></defs></svg>